<svg width="450" height="148" viewBox="0 0 450 148" fill="none" xmlns="http://www.w3.org/2000/svg">
<path d="M89.6 134.8L4.05312e-06 92.6V67.6L89.6 25.4V48.4L31.6 75.2C28.9333 76.4 26.2667 77.4667 23.6 78.4C21.0667 79.2 19.0667 79.7333 17.6 80C19.0667 80.2667 21.1333 80.8 23.8 81.6C26.4667 82.4 29.0667 83.4 31.6 84.6L89.6 111.4V134.8ZM176.722 146C166.189 146 157.922 143.067 151.922 137.2C146.055 131.333 143.122 123.267 143.122 113V58.6H113.322V36H143.122V4.99999H168.322V36H210.522V58.6H168.322V113C168.322 119.933 171.722 123.4 178.522 123.4H208.522V146H176.722ZM275.244 148C264.31 148 255.444 144.2 248.644 136.6C241.977 129 238.644 118.8 238.644 106V76.2C238.644 63.2667 241.977 53 248.644 45.4C255.31 37.8 264.177 34 275.244 34C284.31 34 291.51 36.6 296.844 41.8C302.177 46.8667 304.844 53.8667 304.844 62.8L299.244 57H305.044L304.244 30.8V-3.8147e-06H329.244V146H304.844V125H299.244L304.844 119.2C304.844 128.133 302.177 135.2 296.844 140.4C291.51 145.467 284.31 148 275.244 148ZM284.044 126.4C290.444 126.4 295.377 124.533 298.844 120.8C302.444 116.933 304.244 111.6 304.244 104.8V77.2C304.244 70.4 302.444 65.1333 298.844 61.4C295.377 57.5333 290.444 55.6 284.044 55.6C277.644 55.6 272.644 57.4667 269.044 61.2C265.444 64.9333 263.644 70.2667 263.644 77.2V104.8C263.644 111.733 265.444 117.067 269.044 120.8C272.644 124.533 277.644 126.4 284.044 126.4ZM359.766 134.8V111.8L417.766 85C420.432 83.8 423.032 82.8 425.566 82C428.232 81.0667 430.299 80.4667 431.766 80.2C430.299 79.9333 428.232 79.4667 425.566 78.8C422.899 78 420.299 77 417.766 75.8L359.766 48.8V25.4L449.366 67.6V92.6L359.766 134.8Z" fill="#F0E8D5"/>
</svg>
